# xmcd CD database file
#
# Track frame offsets:
#	150
#	17195
#	35565
#	51740
#	70190
#	90765
#	104487
#	120702
#	137730
#	154382
#	172065
#	192750
#
# Disc length: 2856 seconds
#
# Revision: 0
# Processed by: cddbd v1.5.1PL0 Copyright (c) Steve Scherf et al.
# Submitted via: CDex 1.51
#
DISCID=aa0b260c
DTITLE=Sofia MESTARI - On aura le ciel
DYEAR=2001
DGENRE=Blues
TTITLE0=Derrieres les voiles
TTITLE1=Ce que tu m'as fait
TTITLE2=On aura le ciel
TTITLE3=Meme si
TTITLE4=Ils s'aiment
TTITLE5=Rien que pour les deux
TTITLE6=A perpetuite
TTITLE7=Un peu de toi
TTITLE8=Ou je vais
TTITLE9=A la seconde
TTITLE10=Mon coeur se bat
TTITLE11=Juste une ombre
EXTD=YEAR: 2001
EXTT0=
EXTT1=
EXTT2=
EXTT3=
EXTT4=
EXTT5=
EXTT6=
EXTT7=
EXTT8=
EXTT9=
EXTT10=
EXTT11=
PLAYORDER=
